<svg xmlns="http://www.w3.org/2000/svg" style="display: none;">
  <!-- Kubernetes -->
  <symbol id="icon-k8s" viewBox="0 0 24 24">
    <path fill="currentColor" d="M12 2L2 7v10l10 5 10-5V7L12 2zm0 2.18l8 4v7.64l-8 4-8-4V8.18l8-4z"/>
    <circle cx="12" cy="12" r="2" fill="currentColor"/>
  </symbol>

  <!-- Terraform -->
  <symbol id="icon-terraform" viewBox="0 0 24 24">
    <path fill="currentColor" d="M14.5 6.5l7 4v8l-7 4v-8l-7-4v8l-7-4v-8l7-4v8l7 4v-8z"/>
  </symbol>

  <!-- ArgoCD -->
  <symbol id="icon-argo" viewBox="0 0 24 24">
    <path fill="currentColor" d="M12 2l9 4.5v11L12 22l-9-4.5v-11L12 2zm0 2.5L5 8v8l7 3.5L19 16V8l-7-3.5z"/>
    <path fill="currentColor" d="M12 8l-4 2v4l4 2 4-2v-4l-4-2z"/>
  </symbol>

  <!-- DPDK -->
  <symbol id="icon-dpdk" viewBox="0 0 24 24">
    <path fill="currentColor" d="M4 6h16v2H4V6zm0 5h16v2H4v-2zm0 5h16v2H4v-2z"/>
    <circle cx="6" cy="7" r="1.5" fill="currentColor"/>
    <circle cx="6" cy="12" r="1.5" fill="currentColor"/>
    <circle cx="6" cy="17" r="1.5" fill="currentColor"/>
  </symbol>

  <!-- SR-IOV -->
  <symbol id="icon-sriov" viewBox="0 0 24 24">
    <rect x="3" y="5" width="18" height="3" fill="currentColor" rx="1"/>
    <rect x="3" y="10.5" width="8" height="3" fill="currentColor" rx="1"/>
    <rect x="13" y="10.5" width="8" height="3" fill="currentColor" rx="1"/>
    <rect x="3" y="16" width="5" height="3" fill="currentColor" rx="1"/>
    <rect x="10" y="16" width="4" height="3" fill="currentColor" rx="1"/>
    <rect x="16" y="16" width="5" height="3" fill="currentColor" rx="1"/>
  </symbol>

  <!-- OSM/ONAP -->
  <symbol id="icon-mano" viewBox="0 0 24 24">
    <path fill="currentColor" d="M12 2C6.48 2 2 6.48 2 12s4.48 10 10 10 10-4.48 10-10S17.52 2 12 2zm0 18c-4.41 0-8-3.59-8-8s3.59-8 8-8 8 3.59 8 8-3.59 8-8 8z"/>
    <circle cx="12" cy="12" r="3" fill="currentColor"/>
    <path fill="currentColor" d="M12 5v2M12 17v2M5 12h2M17 12h2"/>
  </symbol>

  <!-- Network -->
  <symbol id="icon-network" viewBox="0 0 24 24">
    <circle cx="6" cy="6" r="2" fill="currentColor"/>
    <circle cx="18" cy="6" r="2" fill="currentColor"/>
    <circle cx="6" cy="18" r="2" fill="currentColor"/>
    <circle cx="18" cy="18" r="2" fill="currentColor"/>
    <path stroke="currentColor" stroke-width="2" d="M8 6h8M8 18h8M6 8v8M18 8v8" fill="none"/>
  </symbol>

  <!-- Container -->
  <symbol id="icon-container" viewBox="0 0 24 24">
    <rect x="4" y="6" width="16" height="12" fill="none" stroke="currentColor" stroke-width="2" rx="2"/>
    <path stroke="currentColor" stroke-width="2" d="M4 10h16M4 14h16"/>
  </symbol>

  <!-- Security -->
  <symbol id="icon-security" viewBox="0 0 24 24">
    <path fill="currentColor" d="M12 2L4 6v6c0 5.55 3.84 10.74 9 12 5.16-1.26 9-6.45 9-12V6l-8-4zm0 18c-3.92-.98-7-5.36-7-10V7.5l7-3.5 7 3.5V10c0 4.64-3.08 9.02-7 10z"/>
    <path fill="currentColor" d="M10 13l-2-2 1.41-1.41L10 10.17l3.59-3.58L15 8l-5 5z"/>
  </symbol>

  <!-- Observability -->
  <symbol id="icon-observability" viewBox="0 0 24 24">
    <circle cx="12" cy="12" r="3" fill="currentColor"/>
    <path fill="currentColor" d="M12 5c-3.87 0-7 3.13-7 7s3.13 7 7 7 7-3.13 7-7-3.13-7-7-7zm0 12c-2.76 0-5-2.24-5-5s2.24-5 5-5 5 2.24 5 5-2.24 5-5 5z"/>
  </symbol>

  <!-- Edge/5G -->
  <symbol id="icon-5g" viewBox="0 0 24 24">
    <path fill="currentColor" d="M19 8h-3V5h3v3zm0 7h-3v-5h3v5zM5 5h5v14H5V5zm7 0h5v8h-5V5z"/>
  </symbol>

  <!-- CI/CD -->
  <symbol id="icon-cicd" viewBox="0 0 24 24">
    <path fill="currentColor" d="M12 2L3 7v10l9 5 9-5V7l-9-5zm0 2.18L18.82 8 12 11.82 5.18 8 12 4.18zM5 10.18l6 3.35v6.82l-6-3.35v-6.82zm8 10.17v-6.82l6-3.35v6.82l-6 3.35z"/>
  </symbol>

  <!-- Linux -->
  <symbol id="icon-linux" viewBox="0 0 24 24">
    <path fill="currentColor" d="M12 2c-1 0-1.8.5-2.5 1.2C8.8 4 8 5.2 8 6.5c0 .8.2 1.5.5 2.2-.3.3-.5.7-.5 1.3 0 .8.7 1.5 1.5 1.5S11 11 11 10.2V9h2v1.2c0 .8.7 1.5 1.5 1.5s1.5-.7 1.5-1.5c0-.6-.2-1-.5-1.3.3-.7.5-1.4.5-2.2 0-1.3-.8-2.5-1.5-3.3C13.8 2.5 13 2 12 2zm-4 10c-1 0-2 .5-2.5 1.3-.5.8-.5 1.7-.5 2.7v5h2v-4h2v4h2v-5c0-1-.2-1.9-.5-2.7-.5-.8-1.5-1.3-2.5-1.3zm8 0c-1 0-2 .5-2.5 1.3-.5.8-.5 1.7-.5 2.7v5h2v-4h2v4h2v-5c0-1-.2-1.9-.5-2.7-.5-.8-1.5-1.3-2.5-1.3z"/>
  </symbol>

  <!-- Arrow -->
  <symbol id="icon-arrow-right" viewBox="0 0 24 24">
    <path fill="currentColor" d="M10 6L8.59 7.41 13.17 12l-4.58 4.59L10 18l6-6-6-6z"/>
  </symbol>

  <!-- Expand -->
  <symbol id="icon-expand" viewBox="0 0 24 24">
    <path fill="currentColor" d="M16.59 8.59L12 13.17 7.41 8.59 6 10l6 6 6-6-1.41-1.41z"/>
  </symbol>

  <!-- Collapse -->
  <symbol id="icon-collapse" viewBox="0 0 24 24">
    <path fill="currentColor" d="M7.41 15.41L12 10.83l4.59 4.58L18 14l-6-6-6 6 1.41 1.41z"/>
  </symbol>

  <!-- External Link -->
  <symbol id="icon-external" viewBox="0 0 24 24">
    <path fill="currentColor" d="M19 19H5V5h7V3H5a2 2 0 00-2 2v14a2 2 0 002 2h14c1.1 0 2-.9 2-2v-7h-2v7zM14 3v2h3.59l-9.83 9.83 1.41 1.41L19 6.41V10h2V3h-7z"/>
  </symbol>

  <!-- Check -->
  <symbol id="icon-check" viewBox="0 0 24 24">
    <path fill="currentColor" d="M9 16.17L4.83 12l-1.42 1.41L9 19 21 7l-1.41-1.41L9 16.17z"/>
  </symbol>
</svg>
